<svg xmlns="http://www.w3.org/2000/svg" width="318.65" height="317.123" viewBox="0 0 318.65 317.123"><defs><style>.a,.b{opacity:0.5;}.b{fill:#ffc000;}</style></defs><g transform="translate(41.628 -267.347)"><g class="a" transform="translate(165.853 267.347)"><path class="b" d="M274.594,272.08a2.536,2.536,0,0,1-3.416-1.021,2.487,2.487,0,0,1,.936-3.41,2.536,2.536,0,0,1,3.416,1.021A2.487,2.487,0,0,1,274.594,272.08Z" transform="translate(-270.849 -267.347)"/><path class="b" d="M289.129,298.777a2.536,2.536,0,0,1-3.416-1.021,2.487,2.487,0,0,1,.936-3.41,2.536,2.536,0,0,1,3.416,1.021A2.487,2.487,0,0,1,289.129,298.777Z" transform="translate(-275.733 -276.317)"/><path class="b" d="M303.664,325.474a2.536,2.536,0,0,1-3.416-1.021,2.487,2.487,0,0,1,.936-3.41,2.536,2.536,0,0,1,3.416,1.021A2.487,2.487,0,0,1,303.664,325.474Z" transform="translate(-280.617 -285.288)"/><path class="b" d="M318.2,352.172a2.536,2.536,0,0,1-3.416-1.021,2.487,2.487,0,0,1,.936-3.41,2.536,2.536,0,0,1,3.416,1.021A2.487,2.487,0,0,1,318.2,352.172Z" transform="translate(-285.501 -294.259)"/><path class="b" d="M332.732,378.869a2.536,2.536,0,0,1-3.416-1.021,2.487,2.487,0,0,1,.936-3.41,2.536,2.536,0,0,1,3.416,1.021A2.487,2.487,0,0,1,332.732,378.869Z" transform="translate(-290.384 -303.229)"/><path class="b" d="M347.267,405.568a2.536,2.536,0,0,1-3.416-1.021,2.487,2.487,0,0,1,.936-3.41,2.536,2.536,0,0,1,3.416,1.021A2.487,2.487,0,0,1,347.267,405.568Z" transform="translate(-295.268 -312.2)"/><path class="b" d="M361.8,432.264a2.536,2.536,0,0,1-3.416-1.021,2.487,2.487,0,0,1,.936-3.41,2.536,2.536,0,0,1,3.416,1.021A2.487,2.487,0,0,1,361.8,432.264Z" transform="translate(-300.152 -321.17)"/><path class="b" d="M376.336,458.963a2.536,2.536,0,0,1-3.416-1.021,2.487,2.487,0,0,1,.936-3.41,2.536,2.536,0,0,1,3.416,1.021A2.487,2.487,0,0,1,376.336,458.963Z" transform="translate(-305.036 -330.142)"/><path class="b" d="M390.87,485.66a2.536,2.536,0,0,1-3.416-1.021,2.487,2.487,0,0,1,.936-3.41,2.536,2.536,0,0,1,3.416,1.021A2.487,2.487,0,0,1,390.87,485.66Z" transform="translate(-309.919 -339.112)"/><path class="b" d="M405.4,512.36a2.536,2.536,0,0,1-3.416-1.021,2.487,2.487,0,0,1,.936-3.41,2.536,2.536,0,0,1,3.416,1.021A2.487,2.487,0,0,1,405.4,512.36Z" transform="translate(-314.803 -348.083)"/><path class="b" d="M419.939,539.056a2.536,2.536,0,0,1-3.416-1.021,2.487,2.487,0,0,1,.936-3.41,2.536,2.536,0,0,1,3.416,1.021A2.487,2.487,0,0,1,419.939,539.056Z" transform="translate(-319.687 -357.054)"/><path class="b" d="M434.474,565.754a2.536,2.536,0,0,1-3.416-1.021,2.487,2.487,0,0,1,.936-3.41,2.536,2.536,0,0,1,3.416,1.021A2.487,2.487,0,0,1,434.474,565.754Z" transform="translate(-324.571 -366.025)"/></g><g class="a" transform="translate(146.992 277.991)"><path class="b" d="M246.188,288.111a2.536,2.536,0,0,1-3.416-1.021,2.487,2.487,0,0,1,.936-3.41,2.536,2.536,0,0,1,3.416,1.021A2.487,2.487,0,0,1,246.188,288.111Z" transform="translate(-242.443 -283.378)"/><path class="b" d="M260.722,314.809a2.536,2.536,0,0,1-3.416-1.021,2.487,2.487,0,0,1,.936-3.41,2.536,2.536,0,0,1,3.416,1.021A2.487,2.487,0,0,1,260.722,314.809Z" transform="translate(-247.327 -292.349)"/><path class="b" d="M275.257,341.506a2.536,2.536,0,0,1-3.416-1.021,2.487,2.487,0,0,1,.936-3.41,2.536,2.536,0,0,1,3.416,1.021A2.487,2.487,0,0,1,275.257,341.506Z" transform="translate(-252.211 -301.319)"/><path class="b" d="M289.791,368.2a2.536,2.536,0,0,1-3.416-1.021,2.487,2.487,0,0,1,.936-3.41,2.536,2.536,0,0,1,3.416,1.021A2.487,2.487,0,0,1,289.791,368.2Z" transform="translate(-257.094 -310.29)"/><path class="b" d="M304.325,394.9a2.536,2.536,0,0,1-3.416-1.021,2.487,2.487,0,0,1,.936-3.41,2.536,2.536,0,0,1,3.416,1.021A2.487,2.487,0,0,1,304.325,394.9Z" transform="translate(-261.978 -319.261)"/><path class="b" d="M318.86,421.6a2.536,2.536,0,0,1-3.416-1.021,2.487,2.487,0,0,1,.936-3.41,2.536,2.536,0,0,1,3.416,1.021A2.487,2.487,0,0,1,318.86,421.6Z" transform="translate(-266.862 -328.232)"/><path class="b" d="M333.394,448.3a2.536,2.536,0,0,1-3.416-1.021,2.487,2.487,0,0,1,.936-3.41,2.536,2.536,0,0,1,3.416,1.021A2.487,2.487,0,0,1,333.394,448.3Z" transform="translate(-271.746 -337.202)"/><path class="b" d="M347.929,475a2.536,2.536,0,0,1-3.416-1.021,2.487,2.487,0,0,1,.936-3.41,2.536,2.536,0,0,1,3.416,1.021A2.487,2.487,0,0,1,347.929,475Z" transform="translate(-276.629 -346.173)"/><path class="b" d="M362.463,501.694a2.536,2.536,0,0,1-3.416-1.021,2.487,2.487,0,0,1,.936-3.41,2.536,2.536,0,0,1,3.416,1.021A2.487,2.487,0,0,1,362.463,501.694Z" transform="translate(-281.513 -355.144)"/><path class="b" d="M377,528.392a2.536,2.536,0,0,1-3.416-1.021,2.487,2.487,0,0,1,.936-3.41,2.536,2.536,0,0,1,3.416,1.021A2.487,2.487,0,0,1,377,528.392Z" transform="translate(-286.397 -364.115)"/><path class="b" d="M391.532,555.089a2.536,2.536,0,0,1-3.416-1.021,2.487,2.487,0,0,1,.936-3.41,2.536,2.536,0,0,1,3.416,1.021A2.487,2.487,0,0,1,391.532,555.089Z" transform="translate(-291.28 -373.085)"/><path class="b" d="M406.067,581.787a2.536,2.536,0,0,1-3.416-1.021,2.487,2.487,0,0,1,.936-3.41A2.536,2.536,0,0,1,407,578.376,2.487,2.487,0,0,1,406.067,581.787Z" transform="translate(-296.164 -382.056)"/></g><g class="a" transform="translate(128.13 288.636)"><path class="b" d="M217.781,304.142a2.536,2.536,0,0,1-3.416-1.021,2.487,2.487,0,0,1,.936-3.41,2.536,2.536,0,0,1,3.416,1.021A2.487,2.487,0,0,1,217.781,304.142Z" transform="translate(-214.036 -299.409)"/><path class="b" d="M232.316,330.841a2.536,2.536,0,0,1-3.416-1.021,2.487,2.487,0,0,1,.936-3.41,2.536,2.536,0,0,1,3.416,1.021A2.487,2.487,0,0,1,232.316,330.841Z" transform="translate(-218.92 -308.38)"/><path class="b" d="M246.85,357.538a2.536,2.536,0,0,1-3.416-1.021,2.487,2.487,0,0,1,.936-3.41,2.536,2.536,0,0,1,3.416,1.021A2.487,2.487,0,0,1,246.85,357.538Z" transform="translate(-223.804 -317.35)"/><path class="b" d="M261.384,384.237a2.536,2.536,0,0,1-3.416-1.021,2.487,2.487,0,0,1,.936-3.41,2.536,2.536,0,0,1,3.416,1.021A2.487,2.487,0,0,1,261.384,384.237Z" transform="translate(-228.687 -326.322)"/><path class="b" d="M275.919,410.933a2.536,2.536,0,0,1-3.416-1.021,2.487,2.487,0,0,1,.936-3.41,2.536,2.536,0,0,1,3.416,1.021A2.487,2.487,0,0,1,275.919,410.933Z" transform="translate(-233.571 -335.292)"/><path class="b" d="M290.453,437.632a2.536,2.536,0,0,1-3.416-1.021,2.487,2.487,0,0,1,.936-3.41,2.536,2.536,0,0,1,3.416,1.021A2.487,2.487,0,0,1,290.453,437.632Z" transform="translate(-238.455 -344.263)"/><path class="b" d="M304.988,464.329a2.536,2.536,0,0,1-3.416-1.021,2.487,2.487,0,0,1,.936-3.41,2.536,2.536,0,0,1,3.416,1.021A2.487,2.487,0,0,1,304.988,464.329Z" transform="translate(-243.339 -353.233)"/><path class="b" d="M319.522,491.027a2.536,2.536,0,0,1-3.416-1.021,2.487,2.487,0,0,1,.936-3.41,2.536,2.536,0,0,1,3.416,1.021A2.487,2.487,0,0,1,319.522,491.027Z" transform="translate(-248.222 -362.204)"/><path class="b" d="M334.056,517.725a2.536,2.536,0,0,1-3.416-1.021,2.487,2.487,0,0,1,.936-3.41,2.536,2.536,0,0,1,3.416,1.021A2.487,2.487,0,0,1,334.056,517.725Z" transform="translate(-253.106 -371.175)"/><path class="b" d="M348.591,544.423a2.536,2.536,0,0,1-3.416-1.021,2.487,2.487,0,0,1,.936-3.41,2.536,2.536,0,0,1,3.416,1.021A2.487,2.487,0,0,1,348.591,544.423Z" transform="translate(-257.99 -380.146)"/><path class="b" d="M363.125,571.12a2.536,2.536,0,0,1-3.416-1.021,2.487,2.487,0,0,1,.936-3.41,2.536,2.536,0,0,1,3.416,1.021A2.487,2.487,0,0,1,363.125,571.12Z" transform="translate(-262.874 -389.116)"/><path class="b" d="M377.66,597.818a2.536,2.536,0,0,1-3.416-1.021,2.487,2.487,0,0,1,.936-3.41,2.536,2.536,0,0,1,3.416,1.021A2.487,2.487,0,0,1,377.66,597.818Z" transform="translate(-267.757 -398.087)"/></g><g class="a" transform="translate(109.268 299.28)"><path class="b" d="M189.374,320.174a2.536,2.536,0,0,1-3.416-1.021,2.487,2.487,0,0,1,.936-3.41,2.536,2.536,0,0,1,3.416,1.021A2.487,2.487,0,0,1,189.374,320.174Z" transform="translate(-185.63 -315.44)"/><path class="b" d="M203.909,346.872a2.536,2.536,0,0,1-3.416-1.021,2.487,2.487,0,0,1,.936-3.41,2.536,2.536,0,0,1,3.416,1.021A2.487,2.487,0,0,1,203.909,346.872Z" transform="translate(-190.513 -324.411)"/><path class="b" d="M218.444,373.569a2.536,2.536,0,0,1-3.416-1.021,2.487,2.487,0,0,1,.936-3.41,2.536,2.536,0,0,1,3.416,1.021A2.487,2.487,0,0,1,218.444,373.569Z" transform="translate(-195.397 -333.382)"/><path class="b" d="M232.978,400.267a2.536,2.536,0,0,1-3.416-1.021,2.487,2.487,0,0,1,.936-3.41,2.536,2.536,0,0,1,3.416,1.021A2.487,2.487,0,0,1,232.978,400.267Z" transform="translate(-200.281 -342.353)"/><path class="b" d="M247.512,426.965a2.536,2.536,0,0,1-3.416-1.021,2.487,2.487,0,0,1,.936-3.41,2.536,2.536,0,0,1,3.416,1.021A2.487,2.487,0,0,1,247.512,426.965Z" transform="translate(-205.164 -351.324)"/><path class="b" d="M262.046,453.663a2.536,2.536,0,0,1-3.416-1.021,2.487,2.487,0,0,1,.936-3.41,2.536,2.536,0,0,1,3.416,1.021A2.487,2.487,0,0,1,262.046,453.663Z" transform="translate(-210.048 -360.294)"/><path class="b" d="M276.581,480.36a2.536,2.536,0,0,1-3.416-1.021,2.487,2.487,0,0,1,.936-3.41,2.536,2.536,0,0,1,3.416,1.021A2.487,2.487,0,0,1,276.581,480.36Z" transform="translate(-214.932 -369.265)"/><path class="b" d="M291.116,507.058a2.536,2.536,0,0,1-3.416-1.021,2.487,2.487,0,0,1,.936-3.41,2.536,2.536,0,0,1,3.416,1.021A2.487,2.487,0,0,1,291.116,507.058Z" transform="translate(-219.816 -378.236)"/><path class="b" d="M305.65,533.756a2.536,2.536,0,0,1-3.416-1.021,2.487,2.487,0,0,1,.936-3.41,2.536,2.536,0,0,1,3.416,1.021A2.487,2.487,0,0,1,305.65,533.756Z" transform="translate(-224.699 -387.207)"/><path class="b" d="M320.184,560.455a2.536,2.536,0,0,1-3.416-1.021,2.487,2.487,0,0,1,.936-3.41,2.536,2.536,0,0,1,3.416,1.021A2.487,2.487,0,0,1,320.184,560.455Z" transform="translate(-229.583 -396.177)"/><path class="b" d="M334.719,587.152a2.536,2.536,0,0,1-3.416-1.021,2.487,2.487,0,0,1,.936-3.41,2.536,2.536,0,0,1,3.416,1.021A2.487,2.487,0,0,1,334.719,587.152Z" transform="translate(-234.467 -405.148)"/><path class="b" d="M349.253,613.849a2.536,2.536,0,0,1-3.416-1.021,2.487,2.487,0,0,1,.936-3.41,2.536,2.536,0,0,1,3.416,1.021A2.487,2.487,0,0,1,349.253,613.849Z" transform="translate(-239.351 -414.119)"/></g><g class="a" transform="translate(90.406 309.925)"><path class="b" d="M160.966,336.2a2.536,2.536,0,0,1-3.416-1.021,2.487,2.487,0,0,1,.936-3.41,2.536,2.536,0,0,1,3.416,1.021A2.487,2.487,0,0,1,160.966,336.2Z" transform="translate(-157.221 -331.471)"/><path class="b" d="M175.5,362.9a2.536,2.536,0,0,1-3.416-1.021,2.487,2.487,0,0,1,.936-3.41,2.536,2.536,0,0,1,3.416,1.021A2.487,2.487,0,0,1,175.5,362.9Z" transform="translate(-162.105 -340.443)"/><path class="b" d="M190.035,389.6a2.536,2.536,0,0,1-3.416-1.021,2.487,2.487,0,0,1,.936-3.41,2.536,2.536,0,0,1,3.416,1.021A2.487,2.487,0,0,1,190.035,389.6Z" transform="translate(-166.989 -349.413)"/><path class="b" d="M204.57,416.3a2.536,2.536,0,0,1-3.416-1.021,2.487,2.487,0,0,1,.936-3.41,2.536,2.536,0,0,1,3.416,1.021A2.487,2.487,0,0,1,204.57,416.3Z" transform="translate(-171.873 -358.384)"/><path class="b" d="M219.1,443a2.536,2.536,0,0,1-3.416-1.021,2.487,2.487,0,0,1,.936-3.41,2.536,2.536,0,0,1,3.416,1.021A2.487,2.487,0,0,1,219.1,443Z" transform="translate(-176.756 -367.355)"/><path class="b" d="M233.639,469.695a2.536,2.536,0,0,1-3.416-1.021,2.487,2.487,0,0,1,.936-3.41,2.536,2.536,0,0,1,3.416,1.021A2.487,2.487,0,0,1,233.639,469.695Z" transform="translate(-181.64 -376.326)"/><path class="b" d="M248.173,496.392a2.536,2.536,0,0,1-3.416-1.021,2.487,2.487,0,0,1,.936-3.41,2.536,2.536,0,0,1,3.416,1.021A2.487,2.487,0,0,1,248.173,496.392Z" transform="translate(-186.524 -385.296)"/><path class="b" d="M262.707,523.09a2.536,2.536,0,0,1-3.416-1.021,2.487,2.487,0,0,1,.936-3.41,2.536,2.536,0,0,1,3.416,1.021A2.487,2.487,0,0,1,262.707,523.09Z" transform="translate(-191.408 -394.267)"/><path class="b" d="M277.242,549.789a2.536,2.536,0,0,1-3.416-1.021,2.487,2.487,0,0,1,.936-3.41,2.536,2.536,0,0,1,3.416,1.021A2.487,2.487,0,0,1,277.242,549.789Z" transform="translate(-196.291 -403.238)"/><path class="b" d="M291.776,576.487a2.536,2.536,0,0,1-3.416-1.021,2.487,2.487,0,0,1,.936-3.41,2.536,2.536,0,0,1,3.416,1.021A2.487,2.487,0,0,1,291.776,576.487Z" transform="translate(-201.175 -412.209)"/><path class="b" d="M306.31,603.183a2.536,2.536,0,0,1-3.416-1.021,2.487,2.487,0,0,1,.936-3.41,2.536,2.536,0,0,1,3.416,1.021A2.487,2.487,0,0,1,306.31,603.183Z" transform="translate(-206.059 -421.179)"/><path class="b" d="M320.846,629.881a2.536,2.536,0,0,1-3.416-1.021,2.487,2.487,0,0,1,.936-3.41,2.536,2.536,0,0,1,3.416,1.021A2.487,2.487,0,0,1,320.846,629.881Z" transform="translate(-210.943 -430.15)"/></g><g class="a" transform="translate(71.543 320.57)"><path class="b" d="M132.559,352.236a2.536,2.536,0,0,1-3.416-1.021,2.487,2.487,0,0,1,.936-3.41,2.536,2.536,0,0,1,3.416,1.021A2.487,2.487,0,0,1,132.559,352.236Z" transform="translate(-128.814 -347.503)"/><path class="b" d="M147.094,378.934a2.536,2.536,0,0,1-3.416-1.021,2.487,2.487,0,0,1,.936-3.41,2.536,2.536,0,0,1,3.416,1.021A2.487,2.487,0,0,1,147.094,378.934Z" transform="translate(-133.698 -356.474)"/><path class="b" d="M161.628,405.631a2.536,2.536,0,0,1-3.416-1.021,2.487,2.487,0,0,1,.936-3.41,2.536,2.536,0,0,1,3.416,1.021A2.487,2.487,0,0,1,161.628,405.631Z" transform="translate(-138.582 -365.444)"/><path class="b" d="M176.162,432.33a2.536,2.536,0,0,1-3.416-1.021,2.487,2.487,0,0,1,.936-3.41,2.536,2.536,0,0,1,3.416,1.021A2.487,2.487,0,0,1,176.162,432.33Z" transform="translate(-143.465 -374.415)"/><path class="b" d="M190.7,459.028a2.536,2.536,0,0,1-3.416-1.021,2.487,2.487,0,0,1,.936-3.41,2.536,2.536,0,0,1,3.416,1.021A2.487,2.487,0,0,1,190.7,459.028Z" transform="translate(-148.349 -383.386)"/><path class="b" d="M205.231,485.726a2.536,2.536,0,0,1-3.416-1.021,2.487,2.487,0,0,1,.936-3.41,2.536,2.536,0,0,1,3.416,1.021A2.487,2.487,0,0,1,205.231,485.726Z" transform="translate(-153.233 -392.357)"/><path class="b" d="M219.766,512.422a2.536,2.536,0,0,1-3.416-1.021,2.487,2.487,0,0,1,.936-3.41,2.536,2.536,0,0,1,3.416,1.021A2.487,2.487,0,0,1,219.766,512.422Z" transform="translate(-158.116 -401.327)"/><path class="b" d="M234.3,539.121a2.536,2.536,0,0,1-3.416-1.021,2.487,2.487,0,0,1,.936-3.41,2.536,2.536,0,0,1,3.416,1.021A2.487,2.487,0,0,1,234.3,539.121Z" transform="translate(-163 -410.298)"/><path class="b" d="M248.834,565.819a2.536,2.536,0,0,1-3.416-1.021,2.487,2.487,0,0,1,.936-3.41,2.536,2.536,0,0,1,3.416,1.021A2.487,2.487,0,0,1,248.834,565.819Z" transform="translate(-167.884 -419.269)"/><path class="b" d="M263.369,592.517a2.536,2.536,0,0,1-3.416-1.021,2.487,2.487,0,0,1,.936-3.41,2.536,2.536,0,0,1,3.416,1.021A2.487,2.487,0,0,1,263.369,592.517Z" transform="translate(-172.767 -428.24)"/><path class="b" d="M277.9,619.214a2.536,2.536,0,0,1-3.416-1.021,2.487,2.487,0,0,1,.936-3.41,2.536,2.536,0,0,1,3.416,1.021A2.487,2.487,0,0,1,277.9,619.214Z" transform="translate(-177.651 -437.211)"/><path class="b" d="M292.438,645.912a2.536,2.536,0,0,1-3.416-1.021,2.487,2.487,0,0,1,.936-3.41,2.536,2.536,0,0,1,3.416,1.021A2.487,2.487,0,0,1,292.438,645.912Z" transform="translate(-182.535 -446.181)"/></g><g class="a" transform="translate(52.681 331.214)"><path class="b" d="M104.152,368.267a2.536,2.536,0,0,1-3.416-1.021,2.487,2.487,0,0,1,.936-3.41,2.536,2.536,0,0,1,3.416,1.021A2.487,2.487,0,0,1,104.152,368.267Z" transform="translate(-100.407 -363.534)"/><path class="b" d="M118.688,394.965a2.536,2.536,0,0,1-3.416-1.021,2.487,2.487,0,0,1,.936-3.41,2.536,2.536,0,0,1,3.416,1.021A2.487,2.487,0,0,1,118.688,394.965Z" transform="translate(-105.291 -372.505)"/><path class="b" d="M133.222,421.662a2.536,2.536,0,0,1-3.416-1.021,2.487,2.487,0,0,1,.936-3.41,2.536,2.536,0,0,1,3.416,1.021A2.487,2.487,0,0,1,133.222,421.662Z" transform="translate(-110.175 -381.475)"/><path class="b" d="M147.756,448.361a2.536,2.536,0,0,1-3.416-1.021,2.487,2.487,0,0,1,.936-3.41,2.536,2.536,0,0,1,3.416,1.021A2.487,2.487,0,0,1,147.756,448.361Z" transform="translate(-115.058 -390.446)"/><path class="b" d="M162.291,475.058a2.536,2.536,0,0,1-3.416-1.021,2.487,2.487,0,0,1,.936-3.41,2.536,2.536,0,0,1,3.416,1.021A2.487,2.487,0,0,1,162.291,475.058Z" transform="translate(-119.942 -399.417)"/><path class="b" d="M176.826,501.757a2.536,2.536,0,0,1-3.416-1.021,2.487,2.487,0,0,1,.936-3.41,2.536,2.536,0,0,1,3.416,1.021A2.487,2.487,0,0,1,176.826,501.757Z" transform="translate(-124.826 -408.388)"/><path class="b" d="M191.36,528.453a2.536,2.536,0,0,1-3.416-1.021,2.487,2.487,0,0,1,.936-3.41,2.536,2.536,0,0,1,3.416,1.021A2.487,2.487,0,0,1,191.36,528.453Z" transform="translate(-129.71 -417.358)"/><path class="b" d="M205.894,555.152a2.536,2.536,0,0,1-3.416-1.021,2.487,2.487,0,0,1,.936-3.41,2.536,2.536,0,0,1,3.416,1.021A2.487,2.487,0,0,1,205.894,555.152Z" transform="translate(-134.593 -426.329)"/><path class="b" d="M220.428,581.849a2.536,2.536,0,0,1-3.416-1.021,2.487,2.487,0,0,1,.936-3.41,2.536,2.536,0,0,1,3.416,1.021A2.487,2.487,0,0,1,220.428,581.849Z" transform="translate(-139.477 -435.3)"/><path class="b" d="M234.963,608.548a2.536,2.536,0,0,1-3.416-1.021,2.487,2.487,0,0,1,.936-3.41,2.536,2.536,0,0,1,3.416,1.021A2.487,2.487,0,0,1,234.963,608.548Z" transform="translate(-144.361 -444.271)"/><path class="b" d="M249.5,635.245a2.536,2.536,0,0,1-3.416-1.021,2.487,2.487,0,0,1,.936-3.41,2.536,2.536,0,0,1,3.416,1.021A2.487,2.487,0,0,1,249.5,635.245Z" transform="translate(-149.245 -453.241)"/><path class="b" d="M264.032,661.943a2.536,2.536,0,0,1-3.416-1.021,2.487,2.487,0,0,1,.936-3.41,2.536,2.536,0,0,1,3.416,1.021A2.487,2.487,0,0,1,264.032,661.943Z" transform="translate(-154.128 -462.212)"/></g><g class="a" transform="translate(33.819 341.859)"><path class="b" d="M75.744,384.3a2.536,2.536,0,0,1-3.416-1.021,2.487,2.487,0,0,1,.936-3.41,2.536,2.536,0,0,1,3.416,1.021A2.487,2.487,0,0,1,75.744,384.3Z" transform="translate(-72 -379.566)"/><path class="b" d="M90.28,411a2.536,2.536,0,0,1-3.416-1.021,2.487,2.487,0,0,1,.936-3.41,2.536,2.536,0,0,1,3.416,1.021A2.487,2.487,0,0,1,90.28,411Z" transform="translate(-76.884 -388.536)"/><path class="b" d="M104.814,437.694a2.536,2.536,0,0,1-3.416-1.021,2.487,2.487,0,0,1,.936-3.41,2.536,2.536,0,0,1,3.416,1.021A2.487,2.487,0,0,1,104.814,437.694Z" transform="translate(-81.767 -397.507)"/><path class="b" d="M119.348,464.392a2.536,2.536,0,0,1-3.416-1.021,2.487,2.487,0,0,1,.936-3.41,2.536,2.536,0,0,1,3.416,1.021A2.487,2.487,0,0,1,119.348,464.392Z" transform="translate(-86.651 -406.478)"/><path class="b" d="M133.882,491.09a2.536,2.536,0,0,1-3.416-1.021,2.487,2.487,0,0,1,.936-3.41,2.536,2.536,0,0,1,3.416,1.021A2.487,2.487,0,0,1,133.882,491.09Z" transform="translate(-91.535 -415.449)"/><path class="b" d="M148.418,517.789A2.536,2.536,0,0,1,145,516.768a2.487,2.487,0,0,1,.936-3.41,2.536,2.536,0,0,1,3.416,1.021A2.487,2.487,0,0,1,148.418,517.789Z" transform="translate(-96.419 -424.42)"/><path class="b" d="M162.952,544.486a2.536,2.536,0,0,1-3.416-1.021,2.487,2.487,0,0,1,.936-3.41,2.536,2.536,0,0,1,3.416,1.021A2.487,2.487,0,0,1,162.952,544.486Z" transform="translate(-101.302 -433.39)"/><path class="b" d="M177.486,571.183a2.536,2.536,0,0,1-3.416-1.021,2.487,2.487,0,0,1,.936-3.41,2.536,2.536,0,0,1,3.416,1.021A2.487,2.487,0,0,1,177.486,571.183Z" transform="translate(-106.186 -442.361)"/><path class="b" d="M192.02,597.881a2.536,2.536,0,0,1-3.416-1.021,2.487,2.487,0,0,1,.936-3.41,2.536,2.536,0,0,1,3.416,1.021A2.487,2.487,0,0,1,192.02,597.881Z" transform="translate(-111.07 -451.332)"/><path class="b" d="M206.555,624.58a2.536,2.536,0,0,1-3.416-1.021,2.487,2.487,0,0,1,.936-3.41,2.536,2.536,0,0,1,3.416,1.021A2.487,2.487,0,0,1,206.555,624.58Z" transform="translate(-115.953 -460.303)"/><path class="b" d="M221.089,651.277a2.536,2.536,0,0,1-3.416-1.021,2.487,2.487,0,0,1,.936-3.41,2.536,2.536,0,0,1,3.416,1.021A2.487,2.487,0,0,1,221.089,651.277Z" transform="translate(-120.837 -469.273)"/><path class="b" d="M235.624,677.975a2.536,2.536,0,0,1-3.416-1.021,2.487,2.487,0,0,1,.936-3.41,2.536,2.536,0,0,1,3.416,1.021A2.487,2.487,0,0,1,235.624,677.975Z" transform="translate(-125.721 -478.244)"/></g><g class="a" transform="translate(14.958 352.504)"><path class="b" d="M47.338,400.332a2.536,2.536,0,0,1-3.416-1.021,2.487,2.487,0,0,1,.936-3.41,2.536,2.536,0,0,1,3.416,1.021A2.487,2.487,0,0,1,47.338,400.332Z" transform="translate(-43.594 -395.598)"/><path class="b" d="M61.873,427.031a2.536,2.536,0,0,1-3.416-1.021,2.487,2.487,0,0,1,.936-3.41,2.536,2.536,0,0,1,3.416,1.021A2.487,2.487,0,0,1,61.873,427.031Z" transform="translate(-48.478 -404.57)"/><path class="b" d="M76.408,453.727a2.536,2.536,0,0,1-3.416-1.021,2.487,2.487,0,0,1,.936-3.41,2.536,2.536,0,0,1,3.416,1.021A2.487,2.487,0,0,1,76.408,453.727Z" transform="translate(-53.361 -413.54)"/><path class="b" d="M90.942,480.425a2.536,2.536,0,0,1-3.416-1.021,2.487,2.487,0,0,1,.936-3.41,2.536,2.536,0,0,1,3.416,1.021A2.487,2.487,0,0,1,90.942,480.425Z" transform="translate(-58.245 -422.511)"/><path class="b" d="M105.476,507.123a2.536,2.536,0,0,1-3.416-1.021,2.487,2.487,0,0,1,.936-3.41,2.536,2.536,0,0,1,3.416,1.021A2.487,2.487,0,0,1,105.476,507.123Z" transform="translate(-63.128 -431.481)"/><path class="b" d="M120.011,533.821A2.536,2.536,0,0,1,116.6,532.8a2.487,2.487,0,0,1,.936-3.41,2.536,2.536,0,0,1,3.416,1.021A2.487,2.487,0,0,1,120.011,533.821Z" transform="translate(-68.012 -440.452)"/><path class="b" d="M134.545,560.518a2.536,2.536,0,0,1-3.416-1.021,2.487,2.487,0,0,1,.936-3.41,2.536,2.536,0,0,1,3.416,1.021A2.487,2.487,0,0,1,134.545,560.518Z" transform="translate(-72.896 -449.423)"/><path class="b" d="M149.079,587.216a2.536,2.536,0,0,1-3.416-1.021,2.487,2.487,0,0,1,.936-3.41,2.536,2.536,0,0,1,3.416,1.021A2.487,2.487,0,0,1,149.079,587.216Z" transform="translate(-77.78 -458.394)"/><path class="b" d="M163.613,613.915a2.536,2.536,0,0,1-3.416-1.021,2.487,2.487,0,0,1,.936-3.41,2.536,2.536,0,0,1,3.416,1.021A2.487,2.487,0,0,1,163.613,613.915Z" transform="translate(-82.663 -467.365)"/><path class="b" d="M178.149,640.613a2.536,2.536,0,0,1-3.416-1.021,2.487,2.487,0,0,1,.936-3.41,2.536,2.536,0,0,1,3.416,1.021A2.487,2.487,0,0,1,178.149,640.613Z" transform="translate(-87.547 -476.336)"/><path class="b" d="M192.683,667.309a2.536,2.536,0,0,1-3.416-1.021,2.487,2.487,0,0,1,.936-3.41,2.536,2.536,0,0,1,3.416,1.021A2.487,2.487,0,0,1,192.683,667.309Z" transform="translate(-92.431 -485.306)"/><path class="b" d="M207.217,694.007a2.536,2.536,0,0,1-3.416-1.021,2.487,2.487,0,0,1,.936-3.41,2.536,2.536,0,0,1,3.416,1.021A2.487,2.487,0,0,1,207.217,694.007Z" transform="translate(-97.315 -494.277)"/></g><g class="a" transform="translate(-3.905 363.148)"><path class="b" d="M18.93,416.361a2.536,2.536,0,0,1-3.416-1.021,2.487,2.487,0,0,1,.936-3.41,2.536,2.536,0,0,1,3.416,1.021A2.487,2.487,0,0,1,18.93,416.361Z" transform="translate(-15.186 -411.628)"/><path class="b" d="M33.467,443.058a2.536,2.536,0,0,1-3.416-1.021,2.487,2.487,0,0,1,.936-3.41,2.536,2.536,0,0,1,3.416,1.021A2.487,2.487,0,0,1,33.467,443.058Z" transform="translate(-20.07 -420.598)"/><path class="b" d="M48,469.755a2.536,2.536,0,0,1-3.416-1.021,2.487,2.487,0,0,1,.936-3.41,2.536,2.536,0,0,1,3.416,1.021A2.487,2.487,0,0,1,48,469.755Z" transform="translate(-24.954 -429.569)"/><path class="b" d="M62.535,496.453a2.536,2.536,0,0,1-3.416-1.021,2.487,2.487,0,0,1,.936-3.41,2.536,2.536,0,0,1,3.416,1.021A2.487,2.487,0,0,1,62.535,496.453Z" transform="translate(-29.837 -438.539)"/><path class="b" d="M77.07,523.15a2.536,2.536,0,0,1-3.416-1.021,2.487,2.487,0,0,1,.936-3.41,2.536,2.536,0,0,1,3.416,1.021A2.487,2.487,0,0,1,77.07,523.15Z" transform="translate(-34.721 -447.51)"/><path class="b" d="M91.6,549.849a2.536,2.536,0,0,1-3.416-1.021,2.487,2.487,0,0,1,.936-3.41,2.536,2.536,0,0,1,3.416,1.021A2.487,2.487,0,0,1,91.6,549.849Z" transform="translate(-39.605 -456.481)"/><path class="b" d="M106.139,576.546a2.536,2.536,0,0,1-3.416-1.021,2.487,2.487,0,0,1,.936-3.41,2.536,2.536,0,0,1,3.416,1.021A2.487,2.487,0,0,1,106.139,576.546Z" transform="translate(-44.488 -465.452)"/><path class="b" d="M120.673,603.245a2.536,2.536,0,0,1-3.416-1.021,2.487,2.487,0,0,1,.936-3.41,2.536,2.536,0,0,1,3.416,1.021A2.487,2.487,0,0,1,120.673,603.245Z" transform="translate(-49.372 -474.423)"/><path class="b" d="M135.207,629.941a2.536,2.536,0,0,1-3.416-1.021,2.487,2.487,0,0,1,.936-3.41,2.536,2.536,0,0,1,3.416,1.021A2.487,2.487,0,0,1,135.207,629.941Z" transform="translate(-54.256 -483.393)"/><path class="b" d="M149.742,656.64a2.536,2.536,0,0,1-3.416-1.021,2.487,2.487,0,0,1,.936-3.41,2.536,2.536,0,0,1,3.416,1.021A2.487,2.487,0,0,1,149.742,656.64Z" transform="translate(-59.14 -492.364)"/><path class="b" d="M164.276,683.337a2.536,2.536,0,0,1-3.416-1.021,2.487,2.487,0,0,1,.936-3.41,2.536,2.536,0,0,1,3.416,1.021A2.487,2.487,0,0,1,164.276,683.337Z" transform="translate(-64.023 -501.335)"/><path class="b" d="M178.811,710.036a2.536,2.536,0,0,1-3.416-1.021,2.487,2.487,0,0,1,.936-3.41,2.536,2.536,0,0,1,3.416,1.021A2.487,2.487,0,0,1,178.811,710.036Z" transform="translate(-68.907 -510.306)"/></g><g class="a" transform="translate(-22.766 373.792)"><path class="b" d="M-9.476,432.392a2.536,2.536,0,0,1-3.416-1.021,2.487,2.487,0,0,1,.936-3.41,2.536,2.536,0,0,1,3.416,1.021A2.487,2.487,0,0,1-9.476,432.392Z" transform="translate(13.221 -427.659)"/><path class="b" d="M5.058,459.09a2.536,2.536,0,0,1-3.416-1.021,2.487,2.487,0,0,1,.936-3.41,2.536,2.536,0,0,1,3.416,1.021A2.487,2.487,0,0,1,5.058,459.09Z" transform="translate(8.337 -436.63)"/><path class="b" d="M19.592,485.788a2.536,2.536,0,0,1-3.416-1.021,2.487,2.487,0,0,1,.936-3.41,2.536,2.536,0,0,1,3.416,1.021A2.487,2.487,0,0,1,19.592,485.788Z" transform="translate(3.454 -445.6)"/><path class="b" d="M34.126,512.486a2.536,2.536,0,0,1-3.416-1.021,2.487,2.487,0,0,1,.936-3.41,2.536,2.536,0,0,1,3.416,1.021A2.487,2.487,0,0,1,34.126,512.486Z" transform="translate(-1.43 -454.571)"/><path class="b" d="M48.661,539.183a2.536,2.536,0,0,1-3.416-1.021,2.487,2.487,0,0,1,.936-3.41,2.536,2.536,0,0,1,3.416,1.021A2.487,2.487,0,0,1,48.661,539.183Z" transform="translate(-6.314 -463.542)"/><path class="b" d="M63.2,565.881a2.536,2.536,0,0,1-3.416-1.021,2.487,2.487,0,0,1,.936-3.41,2.536,2.536,0,0,1,3.416,1.021A2.487,2.487,0,0,1,63.2,565.881Z" transform="translate(-11.198 -472.513)"/><path class="b" d="M77.73,592.579a2.536,2.536,0,0,1-3.416-1.021,2.487,2.487,0,0,1,.936-3.41,2.536,2.536,0,0,1,3.416,1.021A2.487,2.487,0,0,1,77.73,592.579Z" transform="translate(-16.081 -481.483)"/><path class="b" d="M92.264,619.277a2.536,2.536,0,0,1-3.416-1.021,2.487,2.487,0,0,1,.936-3.41,2.536,2.536,0,0,1,3.416,1.021A2.487,2.487,0,0,1,92.264,619.277Z" transform="translate(-20.965 -490.454)"/><path class="b" d="M106.8,645.975a2.536,2.536,0,0,1-3.416-1.021,2.487,2.487,0,0,1,.936-3.41,2.536,2.536,0,0,1,3.416,1.021A2.487,2.487,0,0,1,106.8,645.975Z" transform="translate(-25.849 -499.425)"/><path class="b" d="M121.333,672.673a2.536,2.536,0,0,1-3.416-1.021,2.487,2.487,0,0,1,.936-3.41,2.536,2.536,0,0,1,3.416,1.021A2.487,2.487,0,0,1,121.333,672.673Z" transform="translate(-30.732 -508.396)"/><path class="b" d="M135.867,699.37a2.536,2.536,0,0,1-3.416-1.021,2.487,2.487,0,0,1,.936-3.41,2.536,2.536,0,0,1,3.416,1.021A2.487,2.487,0,0,1,135.867,699.37Z" transform="translate(-35.616 -517.366)"/><path class="b" d="M150.4,726.068a2.536,2.536,0,0,1-3.416-1.021,2.487,2.487,0,0,1,.936-3.41,2.536,2.536,0,0,1,3.416,1.021A2.487,2.487,0,0,1,150.4,726.068Z" transform="translate(-40.5 -526.337)"/></g><g class="a" transform="translate(-41.628 384.437)"><path class="b" d="M-37.883,448.424A2.536,2.536,0,0,1-41.3,447.4a2.487,2.487,0,0,1,.936-3.41,2.536,2.536,0,0,1,3.416,1.021A2.487,2.487,0,0,1-37.883,448.424Z" transform="translate(41.628 -443.691)"/><path class="b" d="M-23.348,475.123a2.536,2.536,0,0,1-3.416-1.021,2.487,2.487,0,0,1,.936-3.41,2.536,2.536,0,0,1,3.416,1.021A2.487,2.487,0,0,1-23.348,475.123Z" transform="translate(36.744 -452.662)"/><path class="b" d="M-8.814,501.819A2.536,2.536,0,0,1-12.23,500.8a2.487,2.487,0,0,1,.936-3.41,2.536,2.536,0,0,1,3.416,1.021A2.487,2.487,0,0,1-8.814,501.819Z" transform="translate(31.861 -461.632)"/><path class="b" d="M5.72,528.518A2.536,2.536,0,0,1,2.3,527.5a2.487,2.487,0,0,1,.936-3.41,2.536,2.536,0,0,1,3.416,1.021A2.487,2.487,0,0,1,5.72,528.518Z" transform="translate(26.977 -470.603)"/><path class="b" d="M20.255,555.214a2.536,2.536,0,0,1-3.416-1.021,2.487,2.487,0,0,1,.936-3.41,2.536,2.536,0,0,1,3.416,1.021A2.487,2.487,0,0,1,20.255,555.214Z" transform="translate(22.093 -479.573)"/><path class="b" d="M34.789,581.914a2.536,2.536,0,0,1-3.416-1.021,2.487,2.487,0,0,1,.936-3.41,2.536,2.536,0,0,1,3.416,1.021A2.487,2.487,0,0,1,34.789,581.914Z" transform="translate(17.209 -488.545)"/><path class="b" d="M49.324,608.61a2.536,2.536,0,0,1-3.416-1.021,2.487,2.487,0,0,1,.936-3.41A2.536,2.536,0,0,1,50.26,605.2,2.487,2.487,0,0,1,49.324,608.61Z" transform="translate(12.326 -497.515)"/><path class="b" d="M63.858,635.309a2.536,2.536,0,0,1-3.416-1.021,2.487,2.487,0,0,1,.936-3.41,2.536,2.536,0,0,1,3.416,1.021A2.487,2.487,0,0,1,63.858,635.309Z" transform="translate(7.442 -506.486)"/><path class="b" d="M78.392,662.006a2.536,2.536,0,0,1-3.416-1.021,2.487,2.487,0,0,1,.936-3.41,2.536,2.536,0,0,1,3.416,1.021A2.487,2.487,0,0,1,78.392,662.006Z" transform="translate(2.558 -515.457)"/><path class="b" d="M92.927,688.706a2.536,2.536,0,0,1-3.416-1.021,2.487,2.487,0,0,1,.936-3.41,2.536,2.536,0,0,1,3.416,1.021A2.487,2.487,0,0,1,92.927,688.706Z" transform="translate(-2.325 -524.428)"/><path class="b" d="M107.461,715.4a2.536,2.536,0,0,1-3.416-1.021,2.487,2.487,0,0,1,.936-3.41,2.536,2.536,0,0,1,3.416,1.021A2.487,2.487,0,0,1,107.461,715.4Z" transform="translate(-7.209 -533.398)"/><path class="b" d="M122,742.1a2.536,2.536,0,0,1-3.416-1.021,2.487,2.487,0,0,1,.936-3.41,2.536,2.536,0,0,1,3.416,1.021A2.487,2.487,0,0,1,122,742.1Z" transform="translate(-12.093 -542.369)"/></g></g></svg>