<svg width="60" height="60" viewBox="0 0 60 60" fill="none" xmlns="http://www.w3.org/2000/svg">
<path id="Vector" fill-rule="evenodd" clip-rule="evenodd" d="M26.8112 0V7.23513L29.178 27.7775C29.1756 27.7783 29.1732 27.7792 29.1708 27.78L16.1576 11.6487L11.0416 6.53274L8.8702 8.70417L6.5327 11.0426L11.6487 16.1586L27.7996 28.9723C27.7933 28.9845 27.787 28.9967 27.7809 29.009L7.23513 26.8109H0V29.8818V33.1889H7.23513L27.626 30.8395C27.6352 30.87 27.645 30.9002 27.6554 30.9302L11.6486 43.843L6.53259 48.959L8.7036 51.13L11.0417 53.4689L16.1577 48.3529L28.8715 32.3279C28.9109 32.348 28.9509 32.3672 28.9915 32.3853L26.8112 52.7647V59.9998H29.8818L33.1889 60V52.7648L30.8483 32.4499C30.8908 32.4345 30.9327 32.4179 30.9741 32.4002L43.8423 48.3517L48.9584 53.4677L51.1298 51.2963L53.4673 48.9576L48.3513 43.8416L32.2817 31.0924C32.2946 31.0624 32.3068 31.0321 32.3185 31.0014L52.765 33.1889H60.0001V30.1181V26.8111H52.765L32.2924 29.1698C32.2864 29.1553 32.2803 29.1409 32.274 29.1266L48.3515 16.1568L53.4675 11.0408L51.2966 8.86987L48.9584 6.53107L43.8424 11.6471L30.9919 27.8444C30.9894 27.8433 30.9868 27.8422 30.9843 27.8411L33.1889 7.23513V0H30.1183H26.8112Z" fill="#FE5B2C"/>
</svg>
