<svg width="101" height="70" viewBox="0 0 101 70" fill="none" xmlns="http://www.w3.org/2000/svg">
<path d="M41.88 7.6063C45.1136 4.26247 49.5965 2.16798 54.5571 2.16798C61.1713 2.16798 66.9036 5.84252 69.9902 11.3176C72.6726 10.1417 75.6123 9.48032 78.6989 9.48032C90.6044 9.48032 100.268 19.2178 100.268 31.2336C100.268 43.2493 90.6044 52.9869 78.6989 52.9869C77.2291 52.9869 75.8327 52.8399 74.4364 52.5459C71.754 57.3596 66.5729 60.6299 60.6936 60.6299C58.2317 60.6299 55.88 60.042 53.7855 59.0499C51.0296 65.4803 44.6726 70 37.2501 70C29.4968 70 22.9193 65.1129 20.3839 58.2415C19.2815 58.4619 18.1424 58.6089 16.9666 58.6089C7.7435 58.6089 0.28418 51.0394 0.28418 41.7428C0.28418 35.4961 3.628 30.0577 8.62538 27.1181C7.59651 24.7664 7.04533 22.1575 7.04533 19.4016C7.04533 8.67191 15.754 0 26.4837 0C32.7304 0 38.3157 2.97638 41.88 7.6063Z" fill="#121214"/>
<path d="M89.1392 7.58303V4.86681H88.1985V4.25537H90.8324V4.86681H89.9035V7.58303H89.1392ZM91.2204 7.58303V4.25537H92.0906L92.8313 5.68991H92.8901L93.6192 4.25537H94.4423V7.58303H93.7603V6.26608L93.8191 5.23133H93.772L92.8313 7.00687L91.8907 5.23133H91.8436L91.9024 6.26608V7.58303H91.2204Z" fill="black"/>
<path d="M14.7252 36.3043C14.6517 36.4513 14.762 36.4881 14.762 36.5248C14.9457 36.6718 15.1294 36.7453 15.3499 36.8555C16.3788 37.4067 17.3341 37.5537 18.3263 37.5537C20.384 37.5537 21.6701 36.4513 21.6701 34.7243V34.6875C21.6701 33.0707 20.237 32.4828 18.8775 32.0419L18.6937 31.9684C17.6649 31.6377 16.783 31.3437 16.783 30.6823V30.6455C16.783 30.0576 17.2974 29.6534 18.1058 29.6534C18.9877 29.6534 20.0533 29.9474 20.7147 30.3148C20.7147 30.3148 20.8984 30.4251 20.9719 30.2413C21.0087 30.1311 21.3394 29.2125 21.3761 29.1022C21.4129 28.992 21.3394 28.9185 21.2659 28.8818C20.4942 28.4041 19.4286 28.1101 18.3263 28.1101H18.1058C16.2318 28.1101 14.9089 29.2492 14.9089 30.866V30.9028C14.9089 32.6298 16.342 33.181 17.7016 33.5484L17.9221 33.6219C18.9142 33.9159 19.7593 34.1731 19.7593 34.8713V34.908C19.7593 35.5327 19.2082 36.0104 18.3263 36.0104C17.9956 36.0104 16.8932 36.0104 15.6806 35.2387C15.5336 35.1652 15.4601 35.0917 15.3499 35.0182C15.2764 34.9815 15.1294 34.908 15.0927 35.1285L14.7252 36.3043Z" fill="white"/>
<path d="M44.7831 36.3043C44.7096 36.4513 44.8198 36.4881 44.8198 36.5248C45.0035 36.6718 45.1873 36.7453 45.4077 36.8555C46.4366 37.4067 47.392 37.5537 48.3841 37.5537C50.4419 37.5537 51.728 36.4513 51.728 34.7243V34.6875C51.728 33.0707 50.2949 32.4828 48.9353 32.0419L48.7516 31.9684C47.7227 31.6377 46.8408 31.3437 46.8408 30.6823V30.6455C46.8408 30.0576 47.3552 29.6534 48.1636 29.6534C49.0455 29.6534 50.1112 29.9474 50.7726 30.3148C50.7726 30.3148 50.9563 30.4251 51.0298 30.2413C51.0665 30.1311 51.3972 29.2125 51.434 29.1022C51.4707 28.992 51.3972 28.9185 51.3238 28.8818C50.5521 28.4041 49.4865 28.1101 48.3841 28.1101H48.1636C46.2896 28.1101 44.9668 29.2492 44.9668 30.866V30.9028C44.9668 32.6298 46.3999 33.181 47.7594 33.5484L47.9799 33.6219C48.972 33.9159 49.8172 34.1731 49.8172 34.8713V34.908C49.8172 35.5327 49.266 36.0104 48.3841 36.0104C48.0534 36.0104 46.951 36.0104 45.7384 35.2387C45.5915 35.1652 45.518 35.0917 45.4077 35.0182C45.371 34.9815 45.1873 34.9448 45.1505 35.1285L44.7831 36.3043Z" fill="white"/>
<path d="M66.9772 31.0132C66.7935 30.462 66.5362 29.9476 66.2055 29.5434C65.8381 29.1392 65.3971 28.7718 64.8827 28.5513C64.3683 28.2941 63.7436 28.1838 63.0454 28.1838C62.3473 28.1838 61.7226 28.2941 61.2081 28.5513C60.6937 28.8085 60.2528 29.1392 59.8853 29.5434C59.5546 29.9476 59.2606 30.462 59.1137 31.0132C58.9299 31.5644 58.8564 32.1891 58.8564 32.8505C58.8564 33.5119 58.9299 34.1366 59.1137 34.6878C59.2974 35.2389 59.5546 35.7534 59.8853 36.1576C60.2528 36.5618 60.6937 36.9292 61.2081 37.1497C61.7226 37.3702 62.3473 37.5172 63.0454 37.5172C63.7436 37.5172 64.3683 37.4069 64.8827 37.1497C65.3971 36.9292 65.8381 36.5618 66.2055 36.1576C66.5362 35.7534 66.8302 35.2389 66.9772 34.6878C67.1609 34.1366 67.2344 33.5119 67.2344 32.8505C67.2344 32.1891 67.1609 31.5644 66.9772 31.0132ZM65.2869 32.8505C65.2869 33.8426 65.1032 34.6143 64.7357 35.1655C64.3683 35.7166 63.8171 35.9739 63.0822 35.9739C62.3105 35.9739 61.7961 35.7166 61.4286 35.1655C61.0612 34.6143 60.8774 33.8426 60.8774 32.8505C60.8774 31.8584 61.0612 31.0867 61.4286 30.5355C61.7961 29.9844 62.3105 29.7271 63.0822 29.7271C63.8538 29.7271 64.405 29.9844 64.7357 30.5355C65.1032 31.0867 65.2869 31.8584 65.2869 32.8505Z" fill="white"/>
<path fill-rule="evenodd" clip-rule="evenodd" d="M81.0507 35.7163C80.9772 35.5326 80.8302 35.606 80.8302 35.606C80.573 35.7163 80.3158 35.7898 80.0218 35.8265C79.7279 35.8633 79.4339 35.9 79.0664 35.9C78.2213 35.9 77.5966 35.6428 77.1189 35.1651C76.6413 34.6874 76.384 33.879 76.384 32.8134C76.384 31.858 76.6045 31.1231 77.0454 30.5719C77.4496 30.0207 78.1111 29.7268 78.9562 29.7268C79.6544 29.7268 80.2056 29.8003 80.7567 29.984C80.7567 29.984 80.9037 30.0575 80.9405 29.8738C81.0874 29.4696 81.1977 29.1756 81.3447 28.6979C81.3814 28.5509 81.2712 28.5142 81.2344 28.5142C81.0139 28.4407 80.4995 28.2937 80.0953 28.2202C79.7279 28.1467 79.2869 28.1467 78.8092 28.1467C78.0743 28.1467 77.4496 28.257 76.8985 28.5142C76.3473 28.7714 75.8696 29.1021 75.5021 29.5063C75.1347 29.9105 74.8407 30.4249 74.657 30.9761C74.4733 31.5273 74.363 32.152 74.363 32.8134C74.363 34.2465 74.7305 35.3856 75.5021 36.2307C76.2738 37.0759 77.4129 37.5168 78.8827 37.5168C79.7646 37.5168 80.6465 37.3331 81.3079 37.0759C81.3079 37.0759 81.4181 37.0024 81.3814 36.8554L81.0507 35.7163Z" fill="white"/>
<path fill-rule="evenodd" clip-rule="evenodd" d="M89.7963 30.6822C89.6493 30.131 89.2818 29.5798 89.0613 29.3226C88.6939 28.9184 88.3264 28.6244 87.959 28.4774C87.4813 28.257 86.9301 28.1467 86.3054 28.1467C85.5705 28.1467 84.9091 28.257 84.3947 28.5142C83.8435 28.7714 83.4025 29.1021 83.0718 29.543C82.7044 29.984 82.4472 30.4617 82.3002 31.0496C82.1165 31.6375 82.043 32.2255 82.043 32.8869C82.043 33.5483 82.1165 34.173 82.3002 34.7242C82.4839 35.2753 82.7411 35.7898 83.1453 36.194C83.5128 36.5982 84.0272 36.9289 84.6151 37.1494C85.2031 37.3698 85.9012 37.4801 86.7096 37.4801C88.3999 37.4801 89.2818 37.1126 89.6125 36.8921C89.686 36.8554 89.7228 36.7819 89.6493 36.5982L89.2818 35.5326C89.2083 35.3856 89.0613 35.4223 89.0613 35.4223C88.6571 35.5693 88.0692 35.8633 86.6729 35.8633C85.791 35.8633 85.0928 35.606 84.6886 35.1651C84.2477 34.7242 84.064 34.0995 84.0272 33.2543H89.833C89.833 33.2543 89.98 33.2543 90.0167 33.1074C89.98 33.1074 90.1637 32.005 89.7963 30.6822ZM84.0272 31.8948C84.1007 31.3436 84.2477 30.9026 84.5049 30.5352C84.8724 29.984 85.3868 29.69 86.1584 29.69C86.9301 29.69 87.4078 29.984 87.7753 30.5352C88.0325 30.9026 88.106 31.3803 88.1427 31.8948H84.0272Z" fill="white"/>
<path fill-rule="evenodd" clip-rule="evenodd" d="M43.3866 30.6822C43.2396 30.131 42.8721 29.5798 42.6517 29.3226C42.2842 28.9184 41.9168 28.6244 41.5493 28.4774C41.0716 28.257 40.5204 28.1467 39.8958 28.1467C39.1609 28.1467 38.4995 28.257 37.985 28.5142C37.4338 28.7714 36.9929 29.1021 36.6622 29.543C36.2947 29.984 36.0375 30.4617 35.8905 31.0496C35.7068 31.6375 35.6333 32.2255 35.6333 32.8869C35.6333 33.5483 35.7068 34.173 35.8905 34.7242C36.0743 35.2753 36.3315 35.7898 36.7357 36.194C37.1031 36.5982 37.6176 36.9289 38.2055 37.1494C38.7934 37.3698 39.4916 37.4801 40.3 37.4801C41.9903 37.4801 42.8721 37.1126 43.2029 36.8921C43.2763 36.8554 43.3131 36.7819 43.2396 36.5982L42.8722 35.5326C42.7987 35.3856 42.6517 35.4223 42.6517 35.4223C42.2475 35.5693 41.6595 35.8633 40.2632 35.8633C39.3813 35.8633 38.6832 35.606 38.279 35.1651C37.838 34.7242 37.6543 34.0995 37.6176 33.2543H43.4233C43.4233 33.2543 43.5703 33.2543 43.6071 33.1074C43.5703 33.1074 43.754 32.005 43.3866 30.6822ZM37.6176 31.8948C37.6911 31.3436 37.838 30.9026 38.0952 30.5352C38.4627 29.984 38.9771 29.69 39.7488 29.69C40.5204 29.69 40.9981 29.984 41.3656 30.5352C41.5861 30.9026 41.6963 31.3803 41.733 31.8948H37.6176Z" fill="white"/>
<path d="M27.4024 31.6008C27.1819 31.6008 26.8512 31.5641 26.4837 31.5641C25.9693 31.5641 25.4916 31.6375 25.0507 31.7478C24.6097 31.858 24.2055 32.0417 23.8381 32.299C23.4706 32.5562 23.2134 32.8869 22.9929 33.2543C22.7725 33.6218 22.699 34.0995 22.699 34.5772C22.699 35.0916 22.7725 35.5326 22.9562 35.9C23.1399 36.2675 23.3971 36.5614 23.7278 36.8187C24.0586 37.0391 24.4628 37.2229 24.9037 37.3331C25.3446 37.4433 25.8591 37.4801 26.447 37.4801C27.0349 37.4801 27.6229 37.4433 28.2108 37.3331C28.762 37.2229 29.4601 37.1126 29.6806 37.0391C29.8643 37.0024 30.0848 36.9289 30.0848 36.9289C30.2318 36.8921 30.2318 36.7452 30.2318 36.7452V31.4538C30.2318 30.278 29.9378 29.4328 29.3131 28.8816C28.6885 28.3672 27.8066 28.0732 26.6675 28.0732C26.2265 28.0732 25.5284 28.1467 25.1242 28.2202C25.1242 28.2202 23.8748 28.4774 23.3236 28.8816C23.3236 28.8816 23.2134 28.9551 23.2869 29.1021L23.6911 30.2045C23.7278 30.3515 23.8748 30.3147 23.8748 30.3147C23.8748 30.3147 23.9116 30.3147 23.9851 30.278C25.0874 29.69 26.5205 29.69 26.5205 29.69C27.1452 29.69 27.6229 29.8003 27.9536 30.0575C28.2843 30.3147 28.4313 30.6822 28.4313 31.4538V31.711C27.8433 31.6743 27.4024 31.6008 27.4024 31.6008ZM25.0874 35.6795C24.867 35.4958 24.8302 35.4591 24.7567 35.3488C24.6465 35.1651 24.573 34.9079 24.573 34.5772C24.573 34.0627 24.7567 33.6953 25.0874 33.4381C25.0874 33.4381 25.6019 32.9971 26.7777 33.0339C27.6229 33.0339 28.3578 33.1809 28.3578 33.1809V35.8265C28.3578 35.8265 27.6229 35.9735 26.7777 36.047C25.6019 36.0837 25.0874 35.6795 25.0874 35.6795Z" fill="white"/>
<path fill-rule="evenodd" clip-rule="evenodd" d="M74.1427 28.6245C74.1794 28.4775 74.1059 28.4408 74.0692 28.404C73.9589 28.3673 73.4812 28.257 73.1138 28.257C72.3789 28.2203 71.9747 28.3305 71.6072 28.5143C71.2398 28.6612 70.8356 28.9552 70.6151 29.2492V28.551C70.6151 28.4408 70.5416 28.3673 70.4314 28.3673H68.9616C68.8513 28.3673 68.7778 28.4408 68.7778 28.551V37.1862C68.7778 37.2964 68.8513 37.3699 68.9616 37.3699H70.4681C70.5784 37.3699 70.6519 37.2964 70.6519 37.1862V32.8502C70.6519 32.2623 70.7253 31.6744 70.8356 31.3437C70.9458 30.9762 71.1295 30.6822 71.35 30.4985C71.5705 30.278 71.791 30.1311 72.0482 30.0576C72.3054 29.9841 72.5994 29.9473 72.8198 29.9473C73.1138 29.9473 73.4445 30.0208 73.4445 30.0208C73.5547 30.0208 73.6282 29.9473 73.665 29.8738C73.8119 29.5799 74.1059 28.7715 74.1427 28.6245Z" fill="white"/>
<path fill-rule="evenodd" clip-rule="evenodd" d="M59.8487 24.6192C59.6649 24.5457 59.4812 24.5089 59.2607 24.4722C59.0403 24.4354 58.783 24.3987 58.4891 24.3987C57.4235 24.3987 56.615 24.6926 56.0271 25.2806C55.4392 25.8685 55.0717 26.7504 54.8513 27.9262L54.7778 28.3304H53.4549C53.4549 28.3304 53.308 28.3304 53.2712 28.5142L53.0508 29.7268C53.0508 29.837 53.0875 29.9105 53.2345 29.9105H54.5206L53.2345 37.1493C53.1242 37.7373 53.014 38.215 52.9038 38.5824C52.7935 38.9499 52.6466 39.2071 52.4996 39.3908C52.3526 39.5745 52.2056 39.7215 51.9851 39.795C51.8014 39.8685 51.5442 39.9052 51.287 39.9052C51.14 39.9052 50.9563 39.8685 50.8093 39.8685C50.6623 39.8318 50.5888 39.795 50.4786 39.7583C50.4786 39.7583 50.3316 39.6848 50.2581 39.8685C50.2214 39.9787 49.8539 40.9341 49.8171 41.0444C49.7804 41.1546 49.8172 41.2648 49.8906 41.2648C50.0744 41.3383 50.1846 41.3751 50.4051 41.4118C50.7358 41.4853 50.993 41.4853 51.2502 41.4853C51.8014 41.4853 52.2791 41.4118 52.6833 41.2648C53.0875 41.1178 53.4549 40.8606 53.7489 40.5299C54.0796 40.1625 54.3001 39.7583 54.4838 39.2438C54.6675 38.7294 54.8513 38.068 54.9983 37.2963L56.3211 29.9105H58.2318C58.2318 29.9105 58.3788 29.9105 58.4156 29.7268L58.636 28.5142C58.636 28.4039 58.5993 28.3304 58.4523 28.3304H56.615C56.615 28.2937 56.7253 27.6323 56.909 27.0076C56.9825 26.7504 57.1662 26.5299 57.3132 26.3829C57.4602 26.2359 57.6072 26.1257 57.7909 26.089C57.9746 26.0155 58.1951 26.0155 58.4156 26.0155C58.5993 26.0155 58.7463 26.0522 58.8933 26.0522C59.077 26.089 59.1505 26.1257 59.1872 26.1257C59.371 26.1992 59.4077 26.1257 59.4445 26.0522L59.8854 24.8396C59.9956 24.6926 59.8854 24.6559 59.8487 24.6192Z" fill="white"/>
<path fill-rule="evenodd" clip-rule="evenodd" d="M33.943 37.1494C33.943 37.2597 33.8695 37.3332 33.7593 37.3332H32.216C32.1057 37.3332 32.0322 37.2597 32.0322 37.1494V24.803C32.0322 24.6928 32.1057 24.6193 32.216 24.6193H33.7593C33.8695 24.6193 33.943 24.6928 33.943 24.803V37.1494Z" fill="white"/>
</svg>